HIERARCHY
ROOT mixamorig:Hips
{
	OFFSET -0.000008 104.274872 1.554316
	CHANNELS 6 Xposition Yposition Zposition Xrotation Yrotation Zrotation
	JOINT mixamorig:Spine
	{
		OFFSET -0.000005 10.181595 0.131519
		CHANNELS 6 Xposition Yposition Zposition Xrotation Yrotation Zrotation
		JOINT mixamorig:Spine1
		{
			OFFSET -0.000000 9.893959 -1.470707
			CHANNELS 6 Xposition Yposition Zposition Xrotation Yrotation Zrotation
			JOINT mixamorig:Spine2
			{
				OFFSET -0.000000 9.220757 -1.370641
				CHANNELS 6 Xposition Yposition Zposition Xrotation Yrotation Zrotation
				JOINT mixamorig:Neck
				{
					OFFSET 0.000001 16.740417 -2.049036
					CHANNELS 6 Xposition Yposition Zposition Xrotation Yrotation Zrotation
					JOINT mixamorig:Head
					{
						OFFSET 0.000000 9.617874 1.685006
						CHANNELS 6 Xposition Yposition Zposition Xrotation Yrotation Zrotation
						JOINT mixamorig:HeadTop_End
						{
							OFFSET 0.000002 22.037354 7.501101
							CHANNELS 6 Xposition Yposition Zposition Xrotation Yrotation Zrotation
							End Site
							{
								OFFSET 0.000168 2310.654297 -282.823242
							}
						}
					}
				}
				JOINT mixamorig:RightShoulder
				{
					OFFSET -4.569970 11.014908 -2.160885
					CHANNELS 6 Xposition Yposition Zposition Xrotation Yrotation Zrotation
					JOINT mixamorig:RightArm
					{
						OFFSET -10.592851 -0.524811 -2.232101
						CHANNELS 6 Xposition Yposition Zposition Xrotation Yrotation Zrotation
						JOINT mixamorig:RightForeArm
						{
							OFFSET -27.841511 0.000031 -0.000004
							CHANNELS 6 Xposition Yposition Zposition Xrotation Yrotation Zrotation
							JOINT mixamorig:RightHand
							{
								OFFSET -28.328831 -0.000015 0.000015
								CHANNELS 6 Xposition Yposition Zposition Xrotation Yrotation Zrotation
								JOINT mixamorig:RightHandThumb1
								{
									OFFSET -2.464806 -1.573990 2.681852
									CHANNELS 6 Xposition Yposition Zposition Xrotation Yrotation Zrotation
									JOINT mixamorig:RightHandThumb2
									{
										OFFSET -3.215179 -1.872803 1.924282
										CHANNELS 6 Xposition Yposition Zposition Xrotation Yrotation Zrotation
										JOINT mixamorig:RightHandThumb3
										{
											OFFSET -2.654831 -1.527969 1.512609
											CHANNELS 6 Xposition Yposition Zposition Xrotation Yrotation Zrotation
											JOINT mixamorig:RightHandThumb4
											{
												OFFSET -2.018814 -1.152008 1.108052
												CHANNELS 6 Xposition Yposition Zposition Xrotation Yrotation Zrotation
												End Site
												{
													OFFSET -188.809540 -114.533607 132.431396
												}
											}
										}
									}
								}
								JOINT mixamorig:RightHandIndex1
								{
									OFFSET -9.108284 -0.517868 2.259835
									CHANNELS 6 Xposition Yposition Zposition Xrotation Yrotation Zrotation
									JOINT mixamorig:RightHandIndex2
									{
										OFFSET -3.699989 0.000000 0.001215
										CHANNELS 6 Xposition Yposition Zposition Xrotation Yrotation Zrotation
										JOINT mixamorig:RightHandIndex3
										{
											OFFSET -2.850006 0.000031 -0.000522
											CHANNELS 6 Xposition Yposition Zposition Xrotation Yrotation Zrotation
											JOINT mixamorig:RightHandIndex4
											{
												OFFSET -2.772186 -0.000015 -0.000020
												CHANNELS 6 Xposition Yposition Zposition Xrotation Yrotation Zrotation
												End Site
												{
													OFFSET -277.218445 0.000000 -0.050231
												}
											}
										}
									}
								}
								JOINT mixamorig:RightHandMiddle1
								{
									OFFSET -9.532516 -0.000031 -0.000023
									CHANNELS 6 Xposition Yposition Zposition Xrotation Yrotation Zrotation
									JOINT mixamorig:RightHandMiddle2
									{
										OFFSET -3.700005 -0.000015 0.003713
										CHANNELS 6 Xposition Yposition Zposition Xrotation Yrotation Zrotation
										JOINT mixamorig:RightHandMiddle3
										{
											OFFSET -2.949974 0.000015 -0.002054
											CHANNELS 6 Xposition Yposition Zposition Xrotation Yrotation Zrotation
											JOINT mixamorig:RightHandMiddle4
											{
												OFFSET -2.946640 0.000000 -0.000156
												CHANNELS 6 Xposition Yposition Zposition Xrotation Yrotation Zrotation
												End Site
												{
													OFFSET -294.664337 0.000000 -0.113670
												}
											}
										}
									}
								}
								JOINT mixamorig:RightHandRing1
								{
									OFFSET -9.103600 -0.043076 -1.865134
									CHANNELS 6 Xposition Yposition Zposition Xrotation Yrotation Zrotation
									JOINT mixamorig:RightHandRing2
									{
										OFFSET -3.379288 0.000000 -0.001055
										CHANNELS 6 Xposition Yposition Zposition Xrotation Yrotation Zrotation
										JOINT mixamorig:RightHandRing3
										{
											OFFSET -2.889687 -0.000015 0.000379
											CHANNELS 6 Xposition Yposition Zposition Xrotation Yrotation Zrotation
											JOINT mixamorig:RightHandRing4
											{
												OFFSET -2.638809 -0.000015 0.000941
												CHANNELS 6 Xposition Yposition Zposition Xrotation Yrotation Zrotation
												End Site
												{
													OFFSET -263.880371 0.000000 0.516020
												}
											}
										}
									}
								}
								JOINT mixamorig:RightHandPinky1
								{
									OFFSET -8.076683 -0.486710 -3.806280
									CHANNELS 6 Xposition Yposition Zposition Xrotation Yrotation Zrotation
									JOINT mixamorig:RightHandPinky2
									{
										OFFSET -3.600014 -0.000015 -0.003747
										CHANNELS 6 Xposition Yposition Zposition Xrotation Yrotation Zrotation
										JOINT mixamorig:RightHandPinky3
										{
											OFFSET -2.099983 0.000000 -0.005739
											CHANNELS 6 Xposition Yposition Zposition Xrotation Yrotation Zrotation
											JOINT mixamorig:RightHandPinky4
											{
												OFFSET -2.115768 -0.000031 -0.003680
												CHANNELS 6 Xposition Yposition Zposition Xrotation Yrotation Zrotation
												End Site
												{
													OFFSET -211.577087 0.000000 -0.350686
												}
											}
										}
									}
								}
							}
						}
					}
				}
				JOINT mixamorig:LeftShoulder
				{
					OFFSET 4.570447 11.014725 -2.160855
					CHANNELS 6 Xposition Yposition Zposition Xrotation Yrotation Zrotation
					JOINT mixamorig:LeftArm
					{
						OFFSET 10.592371 -0.524597 -2.232119
						CHANNELS 6 Xposition Yposition Zposition Xrotation Yrotation Zrotation
						JOINT mixamorig:LeftForeArm
						{
							OFFSET 27.841532 -0.000031 0.000026
							CHANNELS 6 Xposition Yposition Zposition Xrotation Yrotation Zrotation
							JOINT mixamorig:LeftHand
							{
								OFFSET 28.328846 -0.000061 0.000022
								CHANNELS 6 Xposition Yposition Zposition Xrotation Yrotation Zrotation
								JOINT mixamorig:LeftHandThumb1
								{
									OFFSET 2.466141 -1.576172 2.681732
									CHANNELS 6 Xposition Yposition Zposition Xrotation Yrotation Zrotation
									JOINT mixamorig:LeftHandThumb2
									{
										OFFSET 3.217812 -1.872070 1.916482
										CHANNELS 6 Xposition Yposition Zposition Xrotation Yrotation Zrotation
										JOINT mixamorig:LeftHandThumb3
										{
											OFFSET 2.656029 -1.528778 1.514513
											CHANNELS 6 Xposition Yposition Zposition Xrotation Yrotation Zrotation
											JOINT mixamorig:LeftHandThumb4
											{
												OFFSET 2.020889 -1.154053 1.115139
												CHANNELS 6 Xposition Yposition Zposition Xrotation Yrotation Zrotation
												End Site
												{
													OFFSET 190.885437 -115.081749 130.048782
												}
											}
										}
									}
								}
								JOINT mixamorig:LeftHandIndex1
								{
									OFFSET 9.109314 -0.518021 2.259871
									CHANNELS 6 Xposition Yposition Zposition Xrotation Yrotation Zrotation
									JOINT mixamorig:LeftHandIndex2
									{
										OFFSET 3.699989 0.000000 -0.000322
										CHANNELS 6 Xposition Yposition Zposition Xrotation Yrotation Zrotation
										JOINT mixamorig:LeftHandIndex3
										{
											OFFSET 2.850006 0.000000 0.000352
											CHANNELS 6 Xposition Yposition Zposition Xrotation Yrotation Zrotation
											JOINT mixamorig:LeftHandIndex4
											{
												OFFSET 2.774864 -0.000031 -0.000027
												CHANNELS 6 Xposition Yposition Zposition Xrotation Yrotation Zrotation
												End Site
												{
													OFFSET 277.486267 0.000000 -0.009857
												}
											}
										}
									}
								}
								JOINT mixamorig:LeftHandMiddle1
								{
									OFFSET 9.533394 0.000061 0.000044
									CHANNELS 6 Xposition Yposition Zposition Xrotation Yrotation Zrotation
									JOINT mixamorig:LeftHandMiddle2
									{
										OFFSET 3.699989 -0.000015 -0.000231
										CHANNELS 6 Xposition Yposition Zposition Xrotation Yrotation Zrotation
										JOINT mixamorig:LeftHandMiddle3
										{
											OFFSET 2.949997 -0.000015 -0.000059
											CHANNELS 6 Xposition Yposition Zposition Xrotation Yrotation Zrotation
											JOINT mixamorig:LeftHandMiddle4
											{
												OFFSET 2.952896 0.000031 0.000063
												CHANNELS 6 Xposition Yposition Zposition Xrotation Yrotation Zrotation
												End Site
												{
													OFFSET 295.289337 0.000000 0.022810
												}
											}
										}
									}
								}
								JOINT mixamorig:LeftHandRing1
								{
									OFFSET 9.104523 -0.042999 -1.865074
									CHANNELS 6 Xposition Yposition Zposition Xrotation Yrotation Zrotation
									JOINT mixamorig:LeftHandRing2
									{
										OFFSET 3.150009 -0.000031 0.000043
										CHANNELS 6 Xposition Yposition Zposition Xrotation Yrotation Zrotation
										JOINT mixamorig:LeftHandRing3
										{
											OFFSET 2.949982 -0.000015 0.000040
											CHANNELS 6 Xposition Yposition Zposition Xrotation Yrotation Zrotation
											JOINT mixamorig:LeftHandRing4
											{
												OFFSET 2.644348 0.000000 0.000057
												CHANNELS 6 Xposition Yposition Zposition Xrotation Yrotation Zrotation
												End Site
												{
													OFFSET 264.434631 0.000000 0.012105
												}
											}
										}
									}
								}
								JOINT mixamorig:LeftHandPinky1
								{
									OFFSET 8.077789 -0.486847 -3.806259
									CHANNELS 6 Xposition Yposition Zposition Xrotation Yrotation Zrotation
									JOINT mixamorig:LeftHandPinky2
									{
										OFFSET 3.599953 0.000031 0.014727
										CHANNELS 6 Xposition Yposition Zposition Xrotation Yrotation Zrotation
										JOINT mixamorig:LeftHandPinky3
										{
											OFFSET 2.100021 0.000015 0.007705
											CHANNELS 6 Xposition Yposition Zposition Xrotation Yrotation Zrotation
											JOINT mixamorig:LeftHandPinky4
											{
												OFFSET 2.125504 0.000031 0.007517
												CHANNELS 6 Xposition Yposition Zposition Xrotation Yrotation Zrotation
												End Site
												{
													OFFSET 212.550781 0.000000 0.625752
												}
											}
										}
									}
								}
							}
						}
					}
				}
			}
		}
	}
	JOINT mixamorig:RightUpLeg
	{
		OFFSET -8.207787 -6.751648 -1.599560
		CHANNELS 6 Xposition Yposition Zposition Xrotation Yrotation Zrotation
		JOINT mixamorig:RightLeg
		{
			OFFSET -0.000002 -44.370117 0.345942
			CHANNELS 6 Xposition Yposition Zposition Xrotation Yrotation Zrotation
			JOINT mixamorig:RightFoot
			{
				OFFSET 0.000003 -44.423679 -3.043532
				CHANNELS 6 Xposition Yposition Zposition Xrotation Yrotation Zrotation
				JOINT mixamorig:RightToeBase
				{
					OFFSET -0.000002 -8.728671 10.710558
					CHANNELS 6 Xposition Yposition Zposition Xrotation Yrotation Zrotation
					JOINT mixamorig:RightToe_End
					{
						OFFSET -0.000001 -0.000679 9.278119
						CHANNELS 6 Xposition Yposition Zposition Xrotation Yrotation Zrotation
						End Site
						{
							OFFSET 0.000000 -0.067690 927.812134
						}
					}
				}
			}
		}
	}
	JOINT mixamorig:LeftUpLeg
	{
		OFFSET 8.207793 -6.751686 -1.599556
		CHANNELS 6 Xposition Yposition Zposition Xrotation Yrotation Zrotation
		JOINT mixamorig:LeftLeg
		{
			OFFSET -0.000004 -44.370014 0.346954
			CHANNELS 6 Xposition Yposition Zposition Xrotation Yrotation Zrotation
			JOINT mixamorig:LeftFoot
			{
				OFFSET -0.000001 -44.423672 -3.044401
				CHANNELS 6 Xposition Yposition Zposition Xrotation Yrotation Zrotation
				JOINT mixamorig:LeftToeBase
				{
					OFFSET -0.000002 -8.728669 10.710558
					CHANNELS 6 Xposition Yposition Zposition Xrotation Yrotation Zrotation
					JOINT mixamorig:LeftToe_End
					{
						OFFSET -0.000003 -0.000679 9.278133
						CHANNELS 6 Xposition Yposition Zposition Xrotation Yrotation Zrotation
						End Site
						{
							OFFSET 0.000000 -0.068021 927.813477
						}
					}
				}
			}
		}
	}
}
MOTION
Frames: 3
Frame Time: 0.033333
0.000006 104.270477 1.554256 0.000010 0.000003 -0.000113 -0.000005 10.181587 0.131522 0.000001 -0.000003 0.000084 -0.000000 9.893967 -1.470711 0.000001 0.000000 -0.000000 -0.000000 9.220802 -1.370642 0.000000 -0.000000 -0.000000 0.000001 16.740433 -2.049030 0.000000 -0.000000 -0.000000 0.000000 9.617859 1.685014 0.000000 0.000000 0.000000 0.000002 22.037384 7.501101 0.000000 -0.000000 0.000000 -4.569968 11.014880 -2.160881 0.000008 0.000001 -0.000038 -10.592874 -0.524766 -2.231901 74.152154 28.747740 -21.919090 -27.841516 0.000011 0.000551 -52.061631 109.287705 69.083771 -28.328825 0.000006 0.000020 -0.000323 -0.000044 0.000006 -2.464435 -1.573926 2.682375 -30.794044 -153.429941 25.231173 -3.215278 -1.872586 1.924654 157.585510 32.140644 4.636666 -2.654951 -1.527891 1.513083 147.391234 26.516193 -40.435113 -2.018830 -1.152017 1.108068 -0.000003 0.000002 0.000003 -9.108392 -0.517566 2.260156 106.795171 17.480519 -23.452464 -3.700060 0.000314 0.001521 101.991062 11.974296 -14.728051 -2.850057 0.000381 -0.000232 102.433699 7.506422 -9.333313 -2.772182 0.000000 -0.000018 -0.000001 -0.000001 0.000001 -9.532605 0.000257 0.000294 102.701436 17.372494 -21.810187 -3.700062 0.000334 0.004002 101.302996 10.576290 -12.768319 -2.950033 0.000347 -0.001769 103.882198 9.049931 -11.534952 -2.946632 0.000001 -0.000155 -0.000000 -0.000001 -0.000000 -9.103696 -0.042764 -1.864830 101.972320 18.233677 -22.352202 -3.379328 0.000328 -0.000774 102.309342 9.725883 -12.082868 -2.889740 0.000350 0.000696 107.806920 5.842788 -8.069032 -2.638822 -0.000016 0.000938 -0.000000 -0.000003 -0.000001 -8.076757 -0.486395 -3.805990 93.164402 18.278440 -19.137488 -3.600046 0.000284 -0.003468 96.963715 9.760874 -10.611040 -2.100028 0.000318 -0.005432 102.318638 5.436979 -6.477920 -2.115764 -0.000048 -0.003680 0.000002 -0.000001 -0.000002 4.570446 11.014691 -2.160851 -0.000018 0.000010 -0.000021 10.592393 -0.524467 -2.232353 76.449693 -10.117896 7.977074 27.841835 0.000078 -0.000219 103.796541 -69.352013 82.840680 28.328854 -0.000029 0.000023 0.000024 -0.000089 0.000000 2.465998 -1.576163 2.681906 -35.468588 158.862140 -18.021647 3.217811 -1.871757 1.916365 157.699970 -30.044226 6.649305 2.656111 -1.528649 1.514462 141.574740 -27.431670 45.280165 2.020902 -1.154082 1.115151 0.000001 0.000003 0.000004 9.109379 -0.517873 2.259729 87.643676 -15.693598 15.056672 3.700039 0.000146 -0.000467 84.857553 -14.143731 12.954520 2.850066 0.000190 0.000202 82.151446 -12.396001 10.813462 2.774882 -0.000033 -0.000027 -0.000002 0.000003 0.000002 9.533461 0.000224 -0.000085 88.303500 -15.222569 14.774826 3.700049 0.000171 -0.000379 89.425789 -13.788169 13.649278 2.950073 0.000177 -0.000207 89.631172 -15.451281 15.356325 2.952861 -0.000014 0.000062 0.000000 0.000000 -0.000001 9.104586 -0.042833 -1.865214 88.018749 -15.029254 14.525745 3.150054 0.000183 -0.000104 91.631673 -13.432086 13.818354 2.950035 0.000171 -0.000074 93.431408 -13.390821 14.211490 2.644302 0.000032 0.000047 0.000000 0.000001 0.000000 8.077844 -0.486729 -3.806424 75.666939 -18.991438 15.276476 3.600007 0.000185 0.014570 78.017788 -15.379100 12.908975 2.100044 0.000177 0.007558 79.889793 -12.793952 11.137307 2.125518 0.000000 0.007516 -0.000001 0.000001 -0.000003 -8.207786 -6.751667 -1.599560 -0.077001 -0.000003 0.000080 -0.000002 -44.370110 0.345938 0.153719 -0.000000 -0.000000 0.000000 -44.423679 -3.043532 -0.076700 0.000000 -0.000002 -0.000006 -8.728667 10.710559 -0.000009 -0.000000 -0.000000 -0.000001 -0.000679 9.278123 0.000000 -0.000000 -0.000000 8.207792 -6.751710 -1.599556 -0.074518 -0.000003 0.000081 -0.000002 -44.370014 0.346960 0.148822 0.000002 0.000000 -0.000001 -44.423664 -3.044403 -0.074314 0.000000 -0.000002 -0.000004 -8.728671 10.710558 0.000007 -0.000000 -0.000000 0.000000 -0.000680 9.278137 -0.000000 0.000000 -0.000001 
0.000006 104.270477 1.554256 0.000010 0.000003 -0.000113 -0.000005 10.181587 0.131522 0.000001 -0.000003 0.000084 -0.000000 9.893967 -1.470711 0.000001 0.000000 -0.000000 -0.000000 9.220802 -1.370642 0.000000 -0.000000 -0.000000 0.000001 16.740433 -2.049030 0.000000 -0.000000 -0.000000 0.000000 9.617859 1.685014 0.000000 0.000000 0.000000 0.000002 22.037384 7.501101 0.000000 -0.000000 0.000000 -4.569968 11.014880 -2.160881 0.000008 0.000001 -0.000038 -10.592865 -0.524786 -2.231875 74.594777 35.004125 -27.013239 -27.841520 0.000011 0.000557 -50.204848 106.849519 64.535459 -28.328831 0.000019 0.000025 -0.000320 -0.000048 0.000008 -2.464418 -1.573934 2.682383 -27.343563 -149.240740 29.270701 -3.215273 -1.872561 1.924649 153.681592 33.925242 19.251230 -2.654955 -1.527905 1.513072 146.476180 26.979748 -37.656400 -2.018846 -1.152016 1.108065 -0.000005 0.000000 0.000004 -9.108375 -0.517575 2.260180 107.728865 16.776620 -22.898744 -3.700063 0.000332 0.001564 105.328170 12.535783 -16.356901 -2.850091 0.000360 -0.000235 103.366560 9.979861 -12.608840 -2.772164 -0.000001 -0.000015 0.000000 -0.000002 0.000000 -9.532598 0.000255 0.000305 104.829921 17.765985 -23.143174 -3.700067 0.000331 0.004013 104.057857 10.645299 -13.495326 -2.950044 0.000325 -0.001779 104.590885 10.431086 -13.459992 -2.946634 0.000014 -0.000161 0.000000 0.000003 0.000000 -9.103698 -0.042762 -1.864802 102.211930 19.727227 -24.269706 -3.379337 0.000322 -0.000765 104.179544 8.408462 -10.806568 -2.889748 0.000369 0.000691 108.826381 6.177964 -8.688669 -2.638822 -0.000001 0.000941 -0.000000 -0.000003 -0.000001 -8.076779 -0.486405 -3.805974 91.856707 24.264577 -24.875125 -3.600049 0.000285 -0.003475 94.669482 11.336806 -11.894843 -2.100017 0.000312 -0.005455 99.024513 6.230684 -7.036639 -2.115774 -0.000038 -0.003677 -0.000001 0.000001 -0.000001 4.570446 11.014691 -2.160851 -0.000018 0.000010 -0.000021 10.592419 -0.524461 -2.232374 75.320225 -19.279201 14.936174 27.841837 0.000051 -0.000191 105.960959 -73.705309 89.652749 28.328831 -0.000028 0.000020 0.000019 -0.000089 0.000001 2.466090 -1.576151 2.681908 -28.572443 160.535373 -34.177628 3.217847 -1.871785 1.916382 162.910489 -26.302874 23.802239 2.656100 -1.528661 1.514482 141.296916 -27.029164 54.065558 2.020902 -1.154082 1.115152 0.000004 0.000003 0.000004 9.109370 -0.517854 2.259749 86.314849 -17.391576 16.310775 3.700034 0.000164 -0.000463 83.451927 -12.285565 10.979612 2.850053 0.000200 0.000199 82.876013 -9.653520 8.525440 2.774887 -0.000015 -0.000024 -0.000002 -0.000002 -0.000000 9.533461 0.000230 -0.000080 87.149573 -16.755803 15.944506 3.700024 0.000194 -0.000378 89.158031 -11.009146 10.846909 2.950043 0.000172 -0.000207 89.819610 -10.963826 10.932444 2.952854 -0.000015 0.000059 0.000001 -0.000000 0.000001 9.104586 -0.042827 -1.865226 86.092738 -16.660933 15.577592 3.150044 0.000217 -0.000101 92.164667 -11.931867 12.389775 2.950045 0.000190 -0.000062 93.973492 -10.401994 11.146905 2.644325 0.000033 0.000062 0.000003 0.000001 -0.000000 8.077837 -0.486713 -3.806398 77.570622 -19.204801 15.973864 3.600032 0.000163 0.014568 78.911703 -16.150539 13.756474 2.100040 0.000187 0.007539 81.212677 -11.664672 10.422485 2.125515 -0.000015 0.007512 0.000001 -0.000002 -0.000001 -8.207786 -6.751667 -1.599560 -0.077001 -0.000003 0.000080 -0.000002 -44.370110 0.345938 0.153719 -0.000000 -0.000000 0.000000 -44.423679 -3.043532 -0.076700 0.000000 -0.000002 -0.000006 -8.728667 10.710559 -0.000009 -0.000000 -0.000000 -0.000001 -0.000679 9.278123 0.000000 -0.000000 -0.000000 8.207792 -6.751710 -1.599556 -0.074518 -0.000003 0.000081 -0.000002 -44.370014 0.346960 0.148822 0.000002 0.000000 -0.000001 -44.423664 -3.044403 -0.074314 0.000000 -0.000002 -0.000004 -8.728671 10.710558 0.000007 -0.000000 -0.000000 0.000000 -0.000680 9.278137 -0.000000 0.000000 -0.000001 
0.000006 104.270477 1.554256 0.000010 0.000003 -0.000113 -0.000005 10.181587 0.131522 0.000001 -0.000003 0.000084 -0.000000 9.893967 -1.470711 0.000001 0.000000 -0.000000 -0.000000 9.220802 -1.370642 0.000000 -0.000000 -0.000000 0.000001 16.740433 -2.049030 0.000000 -0.000000 -0.000000 0.000000 9.617859 1.685014 0.000000 0.000000 0.000000 0.000002 22.037384 7.501101 0.000000 -0.000000 0.000000 -4.569968 11.014880 -2.160881 0.000008 0.000001 -0.000038 -10.592863 -0.524799 -2.231848 74.631653 39.229516 -30.394263 -27.841530 -0.000004 0.000562 -49.915395 104.336604 61.869862 -28.328817 0.000023 0.000038 -0.000320 -0.000045 0.000005 -2.464416 -1.573939 2.682369 -27.403759 -148.652852 28.811869 -3.215269 -1.872546 1.924633 153.688149 33.814074 18.550025 -2.654943 -1.527875 1.513080 146.198669 27.036996 -37.646278 -2.018827 -1.152006 1.108058 -0.000000 -0.000006 0.000002 -9.108380 -0.517559 2.260159 107.508188 16.599511 -22.571422 -3.700065 0.000314 0.001558 105.054580 12.417263 -16.123961 -2.850076 0.000368 -0.000217 102.925111 9.913244 -12.426993 -2.772162 -0.000001 -0.000022 0.000001 0.000002 -0.000001 -9.532603 0.000258 0.000304 104.836580 17.530705 -22.844700 -3.700056 0.000339 0.004011 103.833226 10.511889 -13.272275 -2.950058 0.000342 -0.001764 104.219637 10.423031 -13.360773 -2.946622 0.000001 -0.000153 0.000001 -0.000000 -0.000001 -9.103706 -0.042762 -1.864831 102.681034 19.321902 -23.969458 -3.379309 0.000328 -0.000773 104.224165 8.356992 -10.749277 -2.889755 0.000358 0.000691 108.964255 6.360792 -8.966299 -2.638811 0.000015 0.000933 0.000001 0.000001 -0.000002 -8.076775 -0.486409 -3.805969 92.463331 24.058862 -24.917973 -3.600049 0.000297 -0.003484 94.700204 11.258723 -11.816930 -2.100013 0.000319 -0.005462 99.365462 6.225025 -7.072406 -2.115775 -0.000043 -0.003679 0.000000 -0.000003 -0.000003 4.570446 11.014691 -2.160851 -0.000018 0.000010 -0.000021 10.592440 -0.524463 -2.232392 74.593623 -25.736505 19.742544 27.841843 0.000042 -0.000188 108.143205 -75.408396 93.699882 28.328823 -0.000029 0.000020 0.000023 -0.000088 0.000000 2.466204 -1.576106 2.681857 -0.429351 161.496859 -83.361803 3.217865 -1.871815 1.916407 162.721990 -23.203923 36.564523 2.656102 -1.528627 1.514469 144.437368 -26.378080 48.922610 2.020887 -1.154082 1.115141 -0.000001 0.000001 0.000004 9.109389 -0.517856 2.259748 90.648065 -18.911624 19.109966 3.700047 0.000157 -0.000474 88.282066 -13.313138 12.939670 2.850029 0.000218 0.000199 86.635356 -10.733610 10.123172 2.774881 -0.000016 -0.000023 0.000001 -0.000000 -0.000001 9.533465 0.000209 -0.000079 88.997276 -18.451486 18.127816 3.700053 0.000191 -0.000362 92.039552 -11.610394 12.025445 2.950041 0.000189 -0.000194 92.117573 -10.735027 11.139790 2.952856 -0.000027 0.000064 0.000005 0.000000 0.000001 9.104587 -0.042853 -1.865214 87.767050 -18.451141 17.759093 3.150054 0.000207 -0.000102 92.724927 -13.186505 13.824907 2.950028 0.000190 -0.000081 93.172660 -10.469438 11.064057 2.644324 0.000044 0.000057 -0.000007 -0.000001 0.000000 8.077843 -0.486725 -3.806391 79.491777 -21.062335 18.089452 3.600011 0.000169 0.014590 78.064513 -18.253071 15.279717 2.100039 0.000171 0.007566 78.679237 -12.736928 10.854896 2.125512 -0.000016 0.007516 -0.000001 0.000000 -0.000000 -8.207786 -6.751667 -1.599560 -0.077001 -0.000003 0.000080 -0.000002 -44.370110 0.345938 0.153719 -0.000000 -0.000000 0.000000 -44.423679 -3.043532 -0.076700 0.000000 -0.000002 -0.000006 -8.728667 10.710559 -0.000009 -0.000000 -0.000000 -0.000001 -0.000679 9.278123 0.000000 -0.000000 -0.000000 8.207792 -6.751710 -1.599556 -0.074518 -0.000003 0.000081 -0.000002 -44.370014 0.346960 0.148822 0.000002 0.000000 -0.000001 -44.423664 -3.044403 -0.074314 0.000000 -0.000002 -0.000004 -8.728671 10.710558 0.000007 -0.000000 -0.000000 0.000000 -0.000680 9.278137 -0.000000 0.000000 -0.000001 
